<svg width="18" height="18" viewBox="0 0 18 18" fill="none" xmlns="http://www.w3.org/2000/svg">
<path d="M0 2.8125C0 2.06658 0.296316 1.35121 0.823762 0.823762C1.35121 0.296316 2.06658 0 2.8125 0H12.9375C13.6834 0 14.3988 0.296316 14.9262 0.823762C15.4537 1.35121 15.75 2.06658 15.75 2.8125V7.425C15.2181 7.15331 14.6497 6.96006 14.0625 6.85125V2.8125C14.0625 2.51413 13.944 2.22798 13.733 2.017C13.522 1.80603 13.2359 1.6875 12.9375 1.6875H2.8125C2.51413 1.6875 2.22798 1.80603 2.017 2.017C1.80603 2.22798 1.6875 2.51413 1.6875 2.8125V12.9375C1.6875 13.2359 1.80603 13.522 2.017 13.733C2.22798 13.944 2.51413 14.0625 2.8125 14.0625H6.85125C6.96006 14.6497 7.15331 15.2181 7.425 15.75H2.8125C2.06658 15.75 1.35121 15.4537 0.823762 14.9262C0.296316 14.3988 0 13.6834 0 12.9375V2.8125ZM18 12.9375C18 14.2802 17.4666 15.5678 16.5172 16.5172C15.5678 17.4666 14.2802 18 12.9375 18C11.5948 18 10.3072 17.4666 9.35777 16.5172C8.40837 15.5678 7.875 14.2802 7.875 12.9375C7.875 11.5948 8.40837 10.3072 9.35777 9.35777C10.3072 8.40837 11.5948 7.875 12.9375 7.875C14.2802 7.875 15.5678 8.40837 16.5172 9.35777C17.4666 10.3072 18 11.5948 18 12.9375ZM13.5 10.6875C13.5 10.5383 13.4407 10.3952 13.3352 10.2898C13.2298 10.1843 13.0867 10.125 12.9375 10.125C12.7883 10.125 12.6452 10.1843 12.5398 10.2898C12.4343 10.3952 12.375 10.5383 12.375 10.6875V12.375H10.6875C10.5383 12.375 10.3952 12.4343 10.2898 12.5398C10.1843 12.6452 10.125 12.7883 10.125 12.9375C10.125 13.0867 10.1843 13.2298 10.2898 13.3352C10.3952 13.4407 10.5383 13.5 10.6875 13.5H12.375V15.1875C12.375 15.3367 12.4343 15.4798 12.5398 15.5852C12.6452 15.6907 12.7883 15.75 12.9375 15.75C13.0867 15.75 13.2298 15.6907 13.3352 15.5852C13.4407 15.4798 13.5 15.3367 13.5 15.1875V13.5H15.1875C15.3367 13.5 15.4798 13.4407 15.5852 13.3352C15.6907 13.2298 15.75 13.0867 15.75 12.9375C15.75 12.7883 15.6907 12.6452 15.5852 12.5398C15.4798 12.4343 15.3367 12.375 15.1875 12.375H13.5V10.6875Z" fill="white"/>
</svg>
